<?xml version="1.0" encoding="UTF-8" standalone="no"?>
<svg
   viewBox="0 0 24 24"
   version="1.1"
   id="svg1"
   sodipodi:docname="cpu-64-bit.svg"
   inkscape:version="1.3.2 (091e20ef0f, 2023-11-25)"
   width="240"
   height="240"
   xmlns:inkscape="http://www.inkscape.org/namespaces/inkscape"
   xmlns:sodipodi="http://sodipodi.sourceforge.net/DTD/sodipodi-0.dtd"
   xmlns="http://www.w3.org/2000/svg"
   xmlns:svg="http://www.w3.org/2000/svg">
  <defs
     id="defs1" />
  <sodipodi:namedview
     id="namedview1"
     pagecolor="#ffffff"
     bordercolor="#666666"
     borderopacity="1.0"
     inkscape:showpageshadow="2"
     inkscape:pageopacity="0.0"
     inkscape:pagecheckerboard="0"
     inkscape:deskcolor="#d1d1d1"
     inkscape:zoom="1.707"
     inkscape:cx="-10.837727"
     inkscape:cy="-26.362039"
     inkscape:window-width="1716"
     inkscape:window-height="1373"
     inkscape:window-x="0"
     inkscape:window-y="0"
     inkscape:window-maximized="1"
     inkscape:current-layer="svg1" />
  <path
     d="M 9,3 V 5 H 7 A 2,2 0 0 0 5,7 V 9 H 3 v 2 h 2 v 2 H 3 v 2 h 2 v 2 a 2,2 0 0 0 2,2 h 2 v 2 h 2 v -2 h 2 v 2 h 2 v -2 h 2 a 2,2 0 0 0 2,-2 v -2 h 2 v -2 h -2 v -2 h 2 V 9 H 19 V 7 A 2,2 0 0 0 17,5 H 15 V 3 H 13 V 5 H 11 V 3 M 8,9 h 3.5 v 1.5 h -3 v 0.75 h 2 a 1,1 0 0 1 1,1 V 14 a 1,1 0 0 1 -1,1 H 8 A 1,1 0 0 1 7,14 V 10 A 1,1 0 0 1 8,9 m 4.5,0 H 14 v 2 h 1.5 V 9 H 17 v 6 h -1.5 v -2.5 h -3 m -4,0.25 V 13.5 H 10 v -0.75"
     id="path1"
     style="fill:#cccccc;fill-opacity:1" />
</svg>
