<?xml version="1.0" encoding="UTF-8" standalone="no"?>
<svg
   viewBox="0 0 24 24"
   version="1.1"
   id="svg1"
   sodipodi:docname="database.svg"
   inkscape:version="1.3.2 (091e20ef0f, 2023-11-25)"
   width="240"
   height="240"
   xmlns:inkscape="http://www.inkscape.org/namespaces/inkscape"
   xmlns:sodipodi="http://sodipodi.sourceforge.net/DTD/sodipodi-0.dtd"
   xmlns="http://www.w3.org/2000/svg"
   xmlns:svg="http://www.w3.org/2000/svg">
  <defs
     id="defs1" />
  <sodipodi:namedview
     id="namedview1"
     pagecolor="#ffffff"
     bordercolor="#666666"
     borderopacity="1.0"
     inkscape:showpageshadow="2"
     inkscape:pageopacity="0.0"
     inkscape:pagecheckerboard="0"
     inkscape:deskcolor="#d1d1d1"
     inkscape:zoom="1.6628058"
     inkscape:cx="93.516633"
     inkscape:cy="84.19504"
     inkscape:window-width="1516"
     inkscape:window-height="1373"
     inkscape:window-x="0"
     inkscape:window-y="0"
     inkscape:window-maximized="1"
     inkscape:current-layer="svg1" />
  <path
     d="M 12,3 C 7.58,3 4,4.79 4,7 c 0,2.21 3.58,4 8,4 4.42,0 8,-1.79 8,-4 C 20,4.79 16.42,3 12,3 M 4,9 v 3 c 0,2.21 3.58,4 8,4 4.42,0 8,-1.79 8,-4 V 9 c 0,2.21 -3.58,4 -8,4 C 7.58,13 4,11.21 4,9 m 0,5 v 3 c 0,2.21 3.58,4 8,4 4.42,0 8,-1.79 8,-4 v -3 c 0,2.21 -3.58,4 -8,4 -4.42,0 -8,-1.79 -8,-4 z"
     id="path1"
     style="fill:#cccccc;fill-opacity:1" />
</svg>
