<?xml version="1.0" encoding="UTF-8" standalone="no"?>
<svg
   viewBox="0 0 24 24"
   version="1.1"
   id="svg1"
   sodipodi:docname="ram.svg"
   inkscape:export-filename="ram.png"
   inkscape:export-xdpi="96"
   inkscape:export-ydpi="96"
   inkscape:version="1.3.2 (091e20ef0f, 2023-11-25)"
   width="240"
   height="240"
   xmlns:inkscape="http://www.inkscape.org/namespaces/inkscape"
   xmlns:sodipodi="http://sodipodi.sourceforge.net/DTD/sodipodi-0.dtd"
   xmlns="http://www.w3.org/2000/svg"
   xmlns:svg="http://www.w3.org/2000/svg">
  <defs
     id="defs1" />
  <sodipodi:namedview
     id="namedview1"
     pagecolor="#ffffff"
     bordercolor="#666666"
     borderopacity="1.0"
     inkscape:showpageshadow="2"
     inkscape:pageopacity="0.0"
     inkscape:pagecheckerboard="0"
     inkscape:deskcolor="#d1d1d1"
     inkscape:zoom="1.707"
     inkscape:cx="84.651437"
     inkscape:cy="273.57939"
     inkscape:window-width="1716"
     inkscape:window-height="1373"
     inkscape:window-x="0"
     inkscape:window-y="0"
     inkscape:window-maximized="1"
     inkscape:current-layer="svg1"
     inkscape:export-bgcolor="#ffffff00" />
  <path
     style="fill:#cccccc;fill-opacity:1"
     d="m 3.1359411,17.499032 c -0.085503,-0.09752 -0.087235,-0.124717 -0.087235,-1.369597 0,-1.270103 0,-1.270103 -0.2262467,-1.295122 C 2.5224418,14.801135 2.2646938,14.628569 2.1069294,14.355255 1.9855066,14.144899 1.9855066,14.144899 1.9748536,12.507914 1.9646775,10.944189 1.9677339,10.864782 2.0431495,10.733555 2.1873687,10.482607 2.2890467,10.443292 2.855238,10.419558 3.3474131,10.398926 3.3723483,10.393372 3.4771076,10.281063 3.6136535,10.134677 3.6208571,9.8958732 3.4928696,9.7585412 3.4177263,9.6779112 3.348222,9.6646502 2.896673,9.6447882 2.4595927,9.6255632 2.3644416,9.6083372 2.2399435,9.5258942 2.0097367,9.3734512 1.9654462,9.2226152 1.9654462,8.5910662 c 0,-0.673206 0.043196,-0.842428 0.2797347,-1.09587 0.2644937,-0.283395 0.3491319,-0.299725 1.5534501,-0.299725 1.0368146,0 1.0419151,4.5e-4 1.128756,0.09949 0.1001895,0.114268 0.1141967,0.317376 0.030371,0.440385 -0.05314,0.07798 -0.1266435,0.08485 -1.1223441,0.104939 -1.3141858,0.02651 -1.2381722,-0.01364 -1.2616672,0.666424 -0.01559,0.45126 -0.01559,0.45126 0.3801373,0.451499 0.2176502,1.32e-4 0.4629754,0.02025 0.5451671,0.04471 0.2357493,0.07015 0.479701,0.294437 0.6060357,0.557177 0.098918,0.20572 0.1113253,0.272174 0.096323,0.5159008 -0.019553,0.317666 -0.085768,0.48083 -0.2771827,0.683025 -0.2319134,0.244974 -0.3313153,0.280367 -0.855461,0.304593 l -0.4814488,0.02225 -0.011606,1.311129 c -0.00638,0.72112 -8.629e-4,1.375077 0.012268,1.453237 0.013131,0.07816 0.058976,0.179718 0.101878,0.225686 0.076817,0.08231 0.2220437,0.08358 9.5464977,0.08358 9.324453,0 9.46968,-0.0013 9.546497,-0.08358 0.0429,-0.04597 0.08875,-0.147527 0.101878,-0.225686 0.01313,-0.07816 0.01865,-0.732117 0.01227,-1.453237 l -0.01161,-1.311126 -0.461388,-0.02286 C 20.91513,11.037797 20.821791,11.007887 20.599626,10.79889 20.19921,10.422196 20.150948,9.7698632 20.491917,9.3430502 c 0.232788,-0.291395 0.398657,-0.357508 0.946504,-0.37726 0.475808,-0.01716 0.475808,-0.01716 0.460379,-0.463749 -0.0136,-0.393597 -0.02615,-0.458084 -0.105801,-0.543428 -0.09037,-0.09684 -0.09037,-0.09684 -8.0518,-0.118329 -7.0064192,-0.01891 -7.968424,-0.02923 -8.0197621,-0.08598 -0.1086724,-0.120122 -0.097438,-0.351045 0.022923,-0.471192 0.087753,-0.0876 0.092687,-0.08765 8.0295221,-0.08765 5.834475,0 7.982273,0.01302 8.094566,0.04907 0.22154,0.07112 0.434717,0.278381 0.543296,0.528222 0.08459,0.194639 0.09478,0.279443 0.09513,0.791824 4.51e-4,0.660518 -0.0413,0.806791 -0.274694,0.962299 -0.127678,0.08507 -0.210516,0.0993 -0.654433,0.112373 -0.477289,0.01406 -0.513829,0.02134 -0.599805,0.119392 -0.130512,0.148851 -0.12298,0.3716478 0.01766,0.5223718 0.105531,0.113097 0.127361,0.117769 0.647351,0.138538 0.525617,0.02099 0.540931,0.02436 0.658189,0.14476 0.06603,0.0678 0.140057,0.175014 0.164507,0.238261 0.03056,0.07905 0.04088,0.619328 0.03301,1.72866 -0.01145,1.613666 -0.01145,1.613666 -0.132872,1.824019 -0.157765,0.273311 -0.415515,0.445878 -0.71553,0.479055 -0.226247,0.02502 -0.226247,0.02502 -0.226247,1.301146 0,1.276128 0,1.276128 -0.09286,1.369597 -0.09286,0.09347 -0.09286,0.09347 -4.330128,0.09347 -4.23727,0 -4.23727,0 -4.320423,-0.113267 -0.07646,-0.104151 -0.08315,-0.170114 -0.08315,-0.819595 0,-0.423756 -0.01734,-0.741048 -0.04335,-0.793117 -0.02384,-0.04773 -0.105087,-0.114427 -0.180543,-0.148208 -0.11891,-0.05323 -0.155477,-0.05323 -0.274387,0 -0.07546,0.03378 -0.1567,0.100474 -0.180543,0.148208 -0.02601,0.05207 -0.04335,0.369361 -0.04335,0.793117 0,0.649481 -0.0067,0.715444 -0.08315,0.819595 -0.08315,0.113267 -0.08315,0.113267 -4.3260451,0.113267 -4.2428924,0 -4.2428924,0 -4.3301275,-0.09949 z m 1.27687,-1.279424 c 0,-0.7341 0,-0.7341 0.117276,-0.859757 0.064502,-0.06911 0.1561622,-0.125657 0.2036899,-0.125657 0.047528,0 0.139188,0.05655 0.2036898,0.125657 0.117276,0.125657 0.117276,0.125657 0.117276,0.859757 0,0.734099 0,0.734099 0.3610867,0.734099 0.3610866,0 0.3610866,0 0.3610866,-0.734099 0,-0.7341 0,-0.7341 0.117276,-0.859757 0.1276227,-0.136743 0.18854,-0.150796 0.3378005,-0.07793 0.1616441,0.07891 0.1868553,0.209049 0.1868553,0.964509 0,0.707276 0,0.707276 0.3610866,0.707276 0.3610866,0 0.3610866,0 0.3650858,-0.677058 0.00456,-0.772621 0.018031,-0.852199 0.1639763,-0.96895 0.1226293,-0.0981 0.27012,-0.07697 0.3947353,0.05655 0.072845,0.07805 0.079221,0.14543 0.079221,0.837169 v 0.752287 h 0.381147 0.3811469 v -0.754241 c 0,-0.752401 2.511e-4,-0.75451 0.1029614,-0.86456 0.083051,-0.08899 0.127662,-0.105208 0.2306942,-0.08389 0.248305,0.05137 0.2681555,0.12208 0.2681555,0.955169 v 0.747524 h 0.381147 0.381147 v -0.747524 c 0,-0.833089 0.01985,-0.903796 0.2681551,-0.955169 0.103033,-0.02132 0.147644,-0.0051 0.230695,0.08389 0.10271,0.11005 0.102961,0.112159 0.102961,0.86456 0,0.754241 0,0.754241 0.361087,0.754241 0.361086,0 0.361086,0 0.361086,-0.449256 0,-0.570475 0.05447,-0.840476 0.215062,-1.066075 0.392567,-0.551471 1.183346,-0.551471 1.575913,0 0.160594,0.225599 0.215062,0.4956 0.215062,1.066075 0,0.449256 0,0.449256 0.361087,0.449256 h 0.361086 v -0.77066 c 0,-0.770661 0,-0.770661 0.109699,-0.863117 0.131703,-0.111001 0.314781,-0.09012 0.421901,0.04812 0.06093,0.07864 0.07021,0.189381 0.07021,0.838133 v 0.747524 h 0.381147 0.381147 V 16.20618 c 0,-0.833089 0.01985,-0.903796 0.268156,-0.955169 0.103032,-0.02132 0.147643,-0.0051 0.230694,0.08389 0.10271,0.11005 0.102961,0.112159 0.102961,0.86456 v 0.754241 h 0.381147 0.381147 v -0.747524 c 0,-0.830847 0.02023,-0.903903 0.264269,-0.954336 0.09614,-0.01987 0.15,-0.0015 0.240725,0.08205 0.116878,0.107645 0.116878,0.107645 0.130222,0.863727 0.01334,0.756082 0.01334,0.756082 0.371117,0.756082 0.357772,0 0.357772,0 0.357772,-0.707276 0,-0.778508 0.02442,-0.891055 0.211314,-0.974002 0.09949,-0.04415 0.138961,-0.04255 0.22491,0.0091 0.180941,0.108817 0.204479,0.22054 0.205117,0.973585 5.91e-4,0.698552 5.91e-4,0.698552 0.361678,0.698552 0.361086,0 0.361086,0 0.361086,-0.734099 0,-0.7341 0,-0.7341 0.117276,-0.859757 0.148339,-0.15894 0.259041,-0.15894 0.40738,0 0.117276,0.125657 0.117276,0.125657 0.117276,0.859757 v 0.734099 h 0.381147 0.381147 V 15.900506 14.847304 H 12.236355 3.6505171 v 1.053202 1.053201 h 0.381147 0.381147 z M 6.0979025,13.59535 C 6.0427478,13.571785 5.9552743,13.510141 5.903517,13.458364 5.6935074,13.248274 5.6966746,13.285459 5.6966746,11.029879 c 0,-2.1021808 0,-2.1021808 0.090596,-2.2482478 0.049827,-0.08034 0.1710062,-0.189593 0.269286,-0.24279 0.1656731,-0.08968 0.2315225,-0.09672 0.9039217,-0.09672 0.6723522,0 0.7382718,0.007 0.9040804,0.09672 0.1173775,0.06348 0.209916,0.155823 0.2692368,0.268673 0.090388,0.171952 0.090388,0.171952 0.080407,2.2783548 -0.00998,2.106403 -0.00998,2.106403 -0.1036314,2.247087 C 7.9262064,13.609913 7.7980576,13.643978 6.9520468,13.64092 6.5374227,13.63942 6.1530581,13.61891 6.0979025,13.59535 Z M 7.5823492,11.042881 V 9.1299232 H 6.9404174 6.2984856 v 1.9129578 1.912958 h 0.6419318 0.6419318 z m 2.0260971,2.539835 c -0.1723585,-0.08243 -0.3266648,-0.277335 -0.3771852,-0.476419 -0.058023,-0.228649 -0.059978,-3.8918288 -0.0022,-4.1147488 0.053117,-0.204922 0.2192603,-0.416035 0.3862497,-0.490794 0.094356,-0.04224 0.3353258,-0.05864 0.8618322,-0.05864 0.833676,0 0.974526,0.04008 1.157397,0.329323 0.100301,0.158647 0.100301,0.158647 0.111429,2.2270188 0.01113,2.068373 0.01113,2.068373 -0.08236,2.257789 -0.06425,0.130189 -0.148114,0.22037 -0.268193,0.288407 -0.164632,0.09328 -0.217729,0.09889 -0.920661,0.09731 -0.5336004,-0.0012 -0.7802171,-0.01807 -0.8663155,-0.05925 z M 11.112974,11.042881 V 9.1299232 H 10.471042 9.8291104 v 1.9129578 1.912958 h 0.6419316 0.641932 z m 1.964312,2.501774 c -0.119412,-0.06766 -0.203948,-0.158236 -0.267095,-0.286182 -0.09239,-0.187193 -0.09239,-0.187193 -0.09239,-2.198061 0,-1.3162528 0.01474,-2.0526698 0.04267,-2.1318828 0.05807,-0.164681 0.231206,-0.355647 0.387336,-0.427224 0.181458,-0.08319 1.524025,-0.08362 1.709581,-5.51e-4 0.16699,0.07476 0.333134,0.285872 0.38625,0.490794 0.05778,0.22292 0.05583,3.8860998 -0.0022,4.1147488 -0.024,0.09457 -0.0916,0.227531 -0.150229,0.295462 -0.188092,0.217943 -0.297173,0.241886 -1.102013,0.241886 -0.692192,0 -0.747881,-0.006 -0.91192,-0.09899 z m 1.566313,-2.501774 V 9.1299232 h -0.641932 -0.641932 v 1.9129578 1.912958 h 0.641932 0.641932 z m 1.973122,2.529775 c -0.07327,-0.0394 -0.181594,-0.139587 -0.240724,-0.222629 -0.107509,-0.150986 -0.107509,-0.150986 -0.11749,-2.260774 -0.01,-2.1097868 -0.01,-2.1097868 0.08041,-2.2817388 0.05932,-0.11285 0.151859,-0.205195 0.269237,-0.268673 0.165809,-0.08967 0.231728,-0.09672 0.90408,-0.09672 0.672399,0 0.738249,0.007 0.903922,0.09672 0.09828,0.0532 0.219458,0.162453 0.269286,0.24279 0.0906,0.146067 0.0906,0.146067 0.0906,2.2612498 0,2.115183 0,2.115183 -0.09027,2.257298 -0.198332,0.312235 -0.227119,0.320748 -1.126197,0.333046 -0.689653,0.0094 -0.829369,4.57e-4 -0.942845,-0.06057 z m 1.557502,-2.529775 V 9.1299232 H 17.532292 16.89036 v 1.9129578 1.912958 h 0.641932 0.641931 z"
     id="path1" />
</svg>
